<mxfile host="Electron" modified="2023-09-30T20:37:15.833Z" agent="Mozilla/5.0 (Macintosh; Intel Mac OS X 10_15_7) AppleWebKit/537.36 (KHTML, like Gecko) draw.io/22.0.0 Chrome/114.0.5735.289 Electron/25.8.3 Safari/537.36" etag="Tgzd7nLoB8Tq0IBNG1vg" version="22.0.0" type="device" pages="9">
  <diagram id="Pp48M0MinguBe_rJsoKo" name="Login Screen">
    <mxGraphModel dx="1114" dy="999" grid="1" gridSize="10" guides="1" tooltips="1" connect="1" arrows="1" fold="1" page="1" pageScale="1" pageWidth="827" pageHeight="1169" math="0" shadow="0">
      <root>
        <mxCell id="0" />
        <mxCell id="1" parent="0" />
        <mxCell id="iPyEf1UviHw2-Jt65Rq--1" value="&lt;h1&gt;Login&lt;/h1&gt;&lt;p&gt;Flowchart for login/registration and forgot password screen&lt;/p&gt;" style="text;html=1;strokeColor=none;fillColor=none;spacing=5;spacingTop=-20;whiteSpace=wrap;overflow=hidden;rounded=0;align=center;" parent="1" vertex="1">
          <mxGeometry x="215" y="30" width="370" height="70" as="geometry" />
        </mxCell>
        <mxCell id="KBYoawAwMiOUoLe46F9H-2" style="edgeStyle=orthogonalEdgeStyle;rounded=0;orthogonalLoop=1;jettySize=auto;html=1;entryX=0.5;entryY=0;entryDx=0;entryDy=0;" parent="1" source="6rqFadHI2hRLVabpnJ8f-1" target="KBYoawAwMiOUoLe46F9H-1" edge="1">
          <mxGeometry relative="1" as="geometry" />
        </mxCell>
        <mxCell id="6rqFadHI2hRLVabpnJ8f-1" value="&lt;p style=&quot;line-height: 100%;&quot;&gt;&lt;font style=&quot;font-size: 8px;&quot;&gt;Start&lt;/font&gt;&lt;/p&gt;" style="rounded=1;whiteSpace=wrap;html=1;arcSize=50;" parent="1" vertex="1">
          <mxGeometry x="340" y="120" width="120" height="30" as="geometry" />
        </mxCell>
        <mxCell id="kHuZYsfs0Ln9G9ZCZ11L-5" style="edgeStyle=orthogonalEdgeStyle;rounded=0;orthogonalLoop=1;jettySize=auto;html=1;entryX=1;entryY=0.5;entryDx=0;entryDy=0;" parent="1" source="KBYoawAwMiOUoLe46F9H-1" target="kHuZYsfs0Ln9G9ZCZ11L-2" edge="1">
          <mxGeometry relative="1" as="geometry">
            <mxPoint x="310" y="280" as="targetPoint" />
          </mxGeometry>
        </mxCell>
        <mxCell id="kHuZYsfs0Ln9G9ZCZ11L-10" value="&lt;font style=&quot;font-size: 8px;&quot;&gt;Forgot password&lt;/font&gt;" style="edgeLabel;html=1;align=center;verticalAlign=middle;resizable=0;points=[];" parent="kHuZYsfs0Ln9G9ZCZ11L-5" vertex="1" connectable="0">
          <mxGeometry x="-0.5282" y="1" relative="1" as="geometry">
            <mxPoint x="-25" y="-2" as="offset" />
          </mxGeometry>
        </mxCell>
        <mxCell id="kHuZYsfs0Ln9G9ZCZ11L-8" value="&lt;font style=&quot;font-size: 8px;&quot;&gt;Registration&lt;/font&gt;" style="edgeStyle=orthogonalEdgeStyle;rounded=0;orthogonalLoop=1;jettySize=auto;html=1;entryX=0;entryY=0.5;entryDx=0;entryDy=0;" parent="1" source="KBYoawAwMiOUoLe46F9H-1" target="kHuZYsfs0Ln9G9ZCZ11L-1" edge="1">
          <mxGeometry relative="1" as="geometry">
            <Array as="points">
              <mxPoint x="480" y="240" />
            </Array>
          </mxGeometry>
        </mxCell>
        <mxCell id="FOo3JSAV7WQgoMN_OAdu-5" style="edgeStyle=orthogonalEdgeStyle;rounded=0;orthogonalLoop=1;jettySize=auto;html=1;entryX=0.5;entryY=0;entryDx=0;entryDy=0;" parent="1" source="KBYoawAwMiOUoLe46F9H-1" target="bvR7Jik-927S_tHl4RJa-3" edge="1">
          <mxGeometry relative="1" as="geometry" />
        </mxCell>
        <mxCell id="FOo3JSAV7WQgoMN_OAdu-6" value="&lt;font style=&quot;font-size: 8px;&quot;&gt;Login&lt;/font&gt;" style="edgeLabel;html=1;align=center;verticalAlign=middle;resizable=0;points=[];" parent="FOo3JSAV7WQgoMN_OAdu-5" vertex="1" connectable="0">
          <mxGeometry x="-0.0244" y="1" relative="1" as="geometry">
            <mxPoint x="-1" y="-4" as="offset" />
          </mxGeometry>
        </mxCell>
        <mxCell id="KBYoawAwMiOUoLe46F9H-1" value="&lt;p style=&quot;line-height: 80%;&quot;&gt;&lt;span style=&quot;font-size: 8px;&quot;&gt;Login&lt;br&gt;Forgot Password&lt;br&gt;Registration&lt;br&gt;&lt;/span&gt;&lt;/p&gt;" style="rhombus;whiteSpace=wrap;html=1;" parent="1" vertex="1">
          <mxGeometry x="360" y="199" width="80" height="80" as="geometry" />
        </mxCell>
        <mxCell id="iUTJT9bZPNwXqnyrxjt8-1" value="&lt;p style=&quot;line-height: 100%;&quot;&gt;&lt;font style=&quot;font-size: 8px;&quot;&gt;End&lt;/font&gt;&lt;/p&gt;" style="rounded=1;whiteSpace=wrap;html=1;arcSize=50;" parent="1" vertex="1">
          <mxGeometry x="340" y="400" width="120" height="30" as="geometry" />
        </mxCell>
        <mxCell id="kHuZYsfs0Ln9G9ZCZ11L-3" style="edgeStyle=orthogonalEdgeStyle;rounded=0;orthogonalLoop=1;jettySize=auto;html=1;entryX=1;entryY=0.5;entryDx=0;entryDy=0;" parent="1" source="bvR7Jik-927S_tHl4RJa-1" target="iUTJT9bZPNwXqnyrxjt8-1" edge="1">
          <mxGeometry relative="1" as="geometry" />
        </mxCell>
        <UserObject label="&lt;font style=&quot;font-size: 8px;&quot;&gt;Registration&lt;/font&gt;" link="data:page/id,N6yQV4m1ywlepFCkM-Md" id="bvR7Jik-927S_tHl4RJa-1">
          <mxCell style="shape=process;whiteSpace=wrap;html=1;backgroundOutline=1;fillColor=#647687;fontColor=#ffffff;strokeColor=#314354;" parent="1" vertex="1">
            <mxGeometry x="560" y="320" width="120" height="30" as="geometry" />
          </mxCell>
        </UserObject>
        <mxCell id="FOo3JSAV7WQgoMN_OAdu-3" style="edgeStyle=orthogonalEdgeStyle;rounded=0;orthogonalLoop=1;jettySize=auto;html=1;entryX=0;entryY=0.5;entryDx=0;entryDy=0;" parent="1" source="bvR7Jik-927S_tHl4RJa-2" target="iUTJT9bZPNwXqnyrxjt8-1" edge="1">
          <mxGeometry relative="1" as="geometry" />
        </mxCell>
        <UserObject label="&lt;font style=&quot;font-size: 8px;&quot;&gt;Forgot Password&lt;/font&gt;" link="data:page/id,zOqw-mZWqnm6pRhBpSW0" id="bvR7Jik-927S_tHl4RJa-2">
          <mxCell style="shape=process;whiteSpace=wrap;html=1;backgroundOutline=1;fillColor=#647687;strokeColor=#314354;fontColor=#ffffff;" parent="1" vertex="1">
            <mxGeometry x="120" y="320" width="120" height="30" as="geometry" />
          </mxCell>
        </UserObject>
        <mxCell id="FOo3JSAV7WQgoMN_OAdu-2" style="edgeStyle=orthogonalEdgeStyle;rounded=0;orthogonalLoop=1;jettySize=auto;html=1;entryX=0.5;entryY=0;entryDx=0;entryDy=0;" parent="1" source="bvR7Jik-927S_tHl4RJa-3" target="iUTJT9bZPNwXqnyrxjt8-1" edge="1">
          <mxGeometry relative="1" as="geometry" />
        </mxCell>
        <UserObject label="&lt;font style=&quot;font-size: 8px;&quot;&gt;Login&lt;/font&gt;" link="data:page/id,nQIS1bLhMs0fP0lN2l1Q" id="bvR7Jik-927S_tHl4RJa-3">
          <mxCell style="shape=process;whiteSpace=wrap;html=1;backgroundOutline=1;fillColor=#647687;strokeColor=#314354;fontColor=#ffffff;" parent="1" vertex="1">
            <mxGeometry x="340" y="320" width="120" height="30" as="geometry" />
          </mxCell>
        </UserObject>
        <mxCell id="kHuZYsfs0Ln9G9ZCZ11L-9" style="edgeStyle=orthogonalEdgeStyle;rounded=0;orthogonalLoop=1;jettySize=auto;html=1;entryX=0.5;entryY=0;entryDx=0;entryDy=0;" parent="1" source="kHuZYsfs0Ln9G9ZCZ11L-1" target="bvR7Jik-927S_tHl4RJa-1" edge="1">
          <mxGeometry relative="1" as="geometry" />
        </mxCell>
        <mxCell id="kHuZYsfs0Ln9G9ZCZ11L-1" value="&lt;font style=&quot;font-size: 8px;&quot;&gt;Display registration form&lt;/font&gt;" style="rounded=0;whiteSpace=wrap;html=1;" parent="1" vertex="1">
          <mxGeometry x="560" y="224" width="120" height="30" as="geometry" />
        </mxCell>
        <mxCell id="FOo3JSAV7WQgoMN_OAdu-4" style="edgeStyle=orthogonalEdgeStyle;rounded=0;orthogonalLoop=1;jettySize=auto;html=1;entryX=0.5;entryY=0;entryDx=0;entryDy=0;" parent="1" source="kHuZYsfs0Ln9G9ZCZ11L-2" target="bvR7Jik-927S_tHl4RJa-2" edge="1">
          <mxGeometry relative="1" as="geometry" />
        </mxCell>
        <mxCell id="kHuZYsfs0Ln9G9ZCZ11L-2" value="&lt;font style=&quot;font-size: 8px;&quot;&gt;Display forgot password&amp;nbsp; form&lt;/font&gt;" style="rounded=0;whiteSpace=wrap;html=1;" parent="1" vertex="1">
          <mxGeometry x="120" y="224" width="120" height="30" as="geometry" />
        </mxCell>
      </root>
    </mxGraphModel>
  </diagram>
  <diagram name="Login" id="nQIS1bLhMs0fP0lN2l1Q">
    <mxGraphModel dx="743" dy="666" grid="1" gridSize="10" guides="1" tooltips="1" connect="1" arrows="1" fold="1" page="1" pageScale="1" pageWidth="827" pageHeight="1169" math="0" shadow="0">
      <root>
        <mxCell id="0" />
        <mxCell id="1" parent="0" />
        <mxCell id="DNqJh6TYBtY9P14HjNQI-1" value="&lt;h1&gt;Login&lt;/h1&gt;&lt;p&gt;Flowchart for login process&lt;/p&gt;" style="text;html=1;strokeColor=none;fillColor=none;spacing=5;spacingTop=-20;whiteSpace=wrap;overflow=hidden;rounded=0;align=center;" parent="1" vertex="1">
          <mxGeometry x="265" y="30" width="270" height="70" as="geometry" />
        </mxCell>
        <mxCell id="DNqJh6TYBtY9P14HjNQI-6" style="edgeStyle=orthogonalEdgeStyle;rounded=0;orthogonalLoop=1;jettySize=auto;html=1;" parent="1" source="DNqJh6TYBtY9P14HjNQI-3" target="DNqJh6TYBtY9P14HjNQI-5" edge="1">
          <mxGeometry relative="1" as="geometry" />
        </mxCell>
        <mxCell id="DNqJh6TYBtY9P14HjNQI-3" value="&lt;p style=&quot;line-height: 100%;&quot;&gt;&lt;font style=&quot;font-size: 8px;&quot;&gt;Start&lt;/font&gt;&lt;/p&gt;" style="rounded=1;whiteSpace=wrap;html=1;arcSize=50;" parent="1" vertex="1">
          <mxGeometry x="340" y="120" width="120" height="30" as="geometry" />
        </mxCell>
        <mxCell id="DNqJh6TYBtY9P14HjNQI-5" value="&lt;font style=&quot;font-size: 8px;&quot;&gt;Email Address&lt;/font&gt;" style="shape=parallelogram;perimeter=parallelogramPerimeter;whiteSpace=wrap;html=1;fixedSize=1;" parent="1" vertex="1">
          <mxGeometry x="340" y="180" width="120" height="30" as="geometry" />
        </mxCell>
        <mxCell id="d84fnQZny8LNiwPy-5_K-3" value="&lt;font style=&quot;font-size: 8px;&quot;&gt;Yes&lt;/font&gt;" style="edgeStyle=orthogonalEdgeStyle;rounded=0;orthogonalLoop=1;jettySize=auto;html=1;entryX=0.5;entryY=0;entryDx=0;entryDy=0;" parent="1" source="no6ZQhOeUW_nQrPV9sBy-1" target="ScLeXQZ1H-QjNiTSV4QV-5" edge="1">
          <mxGeometry relative="1" as="geometry" />
        </mxCell>
        <mxCell id="FHc7EWl7iv1VO1e3bEvm-2" style="edgeStyle=orthogonalEdgeStyle;rounded=0;orthogonalLoop=1;jettySize=auto;html=1;entryX=1;entryY=0.5;entryDx=0;entryDy=0;" edge="1" parent="1" source="no6ZQhOeUW_nQrPV9sBy-1" target="FHc7EWl7iv1VO1e3bEvm-1">
          <mxGeometry relative="1" as="geometry" />
        </mxCell>
        <mxCell id="FHc7EWl7iv1VO1e3bEvm-3" value="&lt;font style=&quot;font-size: 8px;&quot;&gt;No&lt;/font&gt;" style="edgeLabel;html=1;align=center;verticalAlign=middle;resizable=0;points=[];" vertex="1" connectable="0" parent="FHc7EWl7iv1VO1e3bEvm-2">
          <mxGeometry x="-0.1167" relative="1" as="geometry">
            <mxPoint as="offset" />
          </mxGeometry>
        </mxCell>
        <mxCell id="no6ZQhOeUW_nQrPV9sBy-1" value="&lt;font style=&quot;font-size: 8px;&quot;&gt;Email exists&lt;/font&gt;" style="rhombus;whiteSpace=wrap;html=1;" parent="1" vertex="1">
          <mxGeometry x="360" y="480" width="80" height="80" as="geometry" />
        </mxCell>
        <mxCell id="ScLeXQZ1H-QjNiTSV4QV-13" style="edgeStyle=orthogonalEdgeStyle;rounded=0;orthogonalLoop=1;jettySize=auto;html=1;entryX=0.5;entryY=0;entryDx=0;entryDy=0;" parent="1" source="ScLeXQZ1H-QjNiTSV4QV-5" target="ScLeXQZ1H-QjNiTSV4QV-12" edge="1">
          <mxGeometry relative="1" as="geometry" />
        </mxCell>
        <mxCell id="ScLeXQZ1H-QjNiTSV4QV-5" value="&lt;font style=&quot;font-size: 8px;&quot;&gt;Display password input&lt;/font&gt;" style="rounded=0;whiteSpace=wrap;html=1;" parent="1" vertex="1">
          <mxGeometry x="340" y="610" width="120" height="30" as="geometry" />
        </mxCell>
        <mxCell id="ScLeXQZ1H-QjNiTSV4QV-11" value="&lt;font style=&quot;font-size: 8px;&quot;&gt;No&lt;/font&gt;" style="edgeStyle=orthogonalEdgeStyle;rounded=0;orthogonalLoop=1;jettySize=auto;html=1;entryX=0.5;entryY=0;entryDx=0;entryDy=0;" parent="1" source="MYFaNhsUBVFwGZQAXsoW-8" target="no6ZQhOeUW_nQrPV9sBy-1" edge="1">
          <mxGeometry relative="1" as="geometry" />
        </mxCell>
        <mxCell id="ScLeXQZ1H-QjNiTSV4QV-9" value="&lt;font style=&quot;font-size: 8px;&quot;&gt;Users&lt;/font&gt;" style="shape=cylinder3;whiteSpace=wrap;html=1;boundedLbl=1;backgroundOutline=1;size=15;" parent="1" vertex="1">
          <mxGeometry x="355" y="240" width="90" height="60" as="geometry" />
        </mxCell>
        <mxCell id="ScLeXQZ1H-QjNiTSV4QV-10" style="edgeStyle=orthogonalEdgeStyle;rounded=0;orthogonalLoop=1;jettySize=auto;html=1;entryX=0.5;entryY=0;entryDx=0;entryDy=0;entryPerimeter=0;" parent="1" source="DNqJh6TYBtY9P14HjNQI-5" target="ScLeXQZ1H-QjNiTSV4QV-9" edge="1">
          <mxGeometry relative="1" as="geometry" />
        </mxCell>
        <mxCell id="ScLeXQZ1H-QjNiTSV4QV-12" value="&lt;font style=&quot;font-size: 8px;&quot;&gt;Password&lt;/font&gt;" style="shape=parallelogram;perimeter=parallelogramPerimeter;whiteSpace=wrap;html=1;fixedSize=1;" parent="1" vertex="1">
          <mxGeometry x="340" y="690" width="120" height="30" as="geometry" />
        </mxCell>
        <mxCell id="ScLeXQZ1H-QjNiTSV4QV-20" style="edgeStyle=orthogonalEdgeStyle;rounded=0;orthogonalLoop=1;jettySize=auto;html=1;entryX=0.5;entryY=0;entryDx=0;entryDy=0;" parent="1" source="ScLeXQZ1H-QjNiTSV4QV-14" target="ScLeXQZ1H-QjNiTSV4QV-19" edge="1">
          <mxGeometry relative="1" as="geometry" />
        </mxCell>
        <mxCell id="ScLeXQZ1H-QjNiTSV4QV-14" value="&lt;font style=&quot;font-size: 8px;&quot;&gt;Users&lt;/font&gt;" style="shape=cylinder3;whiteSpace=wrap;html=1;boundedLbl=1;backgroundOutline=1;size=15;" parent="1" vertex="1">
          <mxGeometry x="357.5" y="780" width="85" height="60" as="geometry" />
        </mxCell>
        <mxCell id="d84fnQZny8LNiwPy-5_K-10" style="edgeStyle=orthogonalEdgeStyle;rounded=0;orthogonalLoop=1;jettySize=auto;html=1;entryX=0.5;entryY=0;entryDx=0;entryDy=0;" parent="1" source="v-_th_8nT_63S4hKsCnV-1" target="d84fnQZny8LNiwPy-5_K-9" edge="1">
          <mxGeometry relative="1" as="geometry" />
        </mxCell>
        <mxCell id="v-_th_8nT_63S4hKsCnV-4" value="&lt;font style=&quot;font-size: 8px;&quot;&gt;Yes&lt;/font&gt;" style="edgeLabel;html=1;align=center;verticalAlign=middle;resizable=0;points=[];" parent="d84fnQZny8LNiwPy-5_K-10" vertex="1" connectable="0">
          <mxGeometry x="-0.1" y="-2" relative="1" as="geometry">
            <mxPoint as="offset" />
          </mxGeometry>
        </mxCell>
        <mxCell id="Qw6zSwiDoBsw6u5X71zS-4" value="&lt;font style=&quot;font-size: 8px;&quot;&gt;No&lt;/font&gt;" style="edgeStyle=orthogonalEdgeStyle;rounded=0;orthogonalLoop=1;jettySize=auto;html=1;entryX=0;entryY=0.5;entryDx=0;entryDy=0;" edge="1" parent="1" source="ScLeXQZ1H-QjNiTSV4QV-19" target="Qw6zSwiDoBsw6u5X71zS-2">
          <mxGeometry relative="1" as="geometry">
            <Array as="points">
              <mxPoint x="430" y="920" />
              <mxPoint x="430" y="920" />
            </Array>
            <mxPoint as="offset" />
          </mxGeometry>
        </mxCell>
        <mxCell id="MYFaNhsUBVFwGZQAXsoW-6" style="edgeStyle=orthogonalEdgeStyle;rounded=0;orthogonalLoop=1;jettySize=auto;html=1;entryX=0.5;entryY=0;entryDx=0;entryDy=0;" edge="1" parent="1" source="ScLeXQZ1H-QjNiTSV4QV-19" target="d84fnQZny8LNiwPy-5_K-5">
          <mxGeometry relative="1" as="geometry" />
        </mxCell>
        <mxCell id="MYFaNhsUBVFwGZQAXsoW-7" value="&lt;font style=&quot;font-size: 8px;&quot;&gt;Yes&lt;/font&gt;" style="edgeLabel;html=1;align=center;verticalAlign=middle;resizable=0;points=[];" vertex="1" connectable="0" parent="MYFaNhsUBVFwGZQAXsoW-6">
          <mxGeometry x="-0.0133" y="1" relative="1" as="geometry">
            <mxPoint as="offset" />
          </mxGeometry>
        </mxCell>
        <mxCell id="ScLeXQZ1H-QjNiTSV4QV-19" value="&lt;font style=&quot;font-size: 8px;&quot;&gt;Password correct&lt;/font&gt;" style="rhombus;whiteSpace=wrap;html=1;" parent="1" vertex="1">
          <mxGeometry x="360" y="880" width="80" height="80" as="geometry" />
        </mxCell>
        <mxCell id="ScLeXQZ1H-QjNiTSV4QV-28" value="&lt;p style=&quot;line-height: 100%;&quot;&gt;&lt;font style=&quot;font-size: 8px;&quot;&gt;End&lt;/font&gt;&lt;/p&gt;" style="rounded=1;whiteSpace=wrap;html=1;arcSize=50;" parent="1" vertex="1">
          <mxGeometry x="340" y="1080" width="120" height="30" as="geometry" />
        </mxCell>
        <mxCell id="MYFaNhsUBVFwGZQAXsoW-5" style="edgeStyle=orthogonalEdgeStyle;rounded=0;orthogonalLoop=1;jettySize=auto;html=1;entryX=0;entryY=0.5;entryDx=0;entryDy=0;" edge="1" parent="1" source="ScLeXQZ1H-QjNiTSV4QV-100" target="ScLeXQZ1H-QjNiTSV4QV-28">
          <mxGeometry relative="1" as="geometry">
            <Array as="points">
              <mxPoint x="120" y="1095" />
            </Array>
          </mxGeometry>
        </mxCell>
        <UserObject label="&lt;font style=&quot;font-size: 8px;&quot;&gt;Registration&lt;/font&gt;" link="data:page/id,N6yQV4m1ywlepFCkM-Md" id="ScLeXQZ1H-QjNiTSV4QV-100">
          <mxCell style="shape=process;whiteSpace=wrap;html=1;backgroundOutline=1;fillColor=#647687;fontColor=#ffffff;strokeColor=#314354;" parent="1" vertex="1">
            <mxGeometry x="60" y="1010" width="120" height="30" as="geometry" />
          </mxCell>
        </UserObject>
        <mxCell id="d84fnQZny8LNiwPy-5_K-4" style="edgeStyle=orthogonalEdgeStyle;rounded=0;orthogonalLoop=1;jettySize=auto;html=1;entryX=0.5;entryY=0;entryDx=0;entryDy=0;entryPerimeter=0;" parent="1" source="ScLeXQZ1H-QjNiTSV4QV-12" target="ScLeXQZ1H-QjNiTSV4QV-14" edge="1">
          <mxGeometry relative="1" as="geometry" />
        </mxCell>
        <mxCell id="d84fnQZny8LNiwPy-5_K-7" value="" style="edgeStyle=orthogonalEdgeStyle;rounded=0;orthogonalLoop=1;jettySize=auto;html=1;" parent="1" source="d84fnQZny8LNiwPy-5_K-5" target="ScLeXQZ1H-QjNiTSV4QV-28" edge="1">
          <mxGeometry relative="1" as="geometry" />
        </mxCell>
        <mxCell id="d84fnQZny8LNiwPy-5_K-5" value="&lt;font style=&quot;font-size: 8px;&quot;&gt;Authentication&lt;/font&gt;" style="shape=process;whiteSpace=wrap;html=1;backgroundOutline=1;fillColor=#60a917;fontColor=#ffffff;strokeColor=#2D7600;" parent="1" vertex="1">
          <mxGeometry x="340" y="1010" width="120" height="30" as="geometry" />
        </mxCell>
        <mxCell id="d84fnQZny8LNiwPy-5_K-11" style="edgeStyle=orthogonalEdgeStyle;rounded=0;orthogonalLoop=1;jettySize=auto;html=1;exitX=0.5;exitY=1;exitDx=0;exitDy=0;entryX=1;entryY=0.5;entryDx=0;entryDy=0;" parent="1" source="d84fnQZny8LNiwPy-5_K-9" target="ScLeXQZ1H-QjNiTSV4QV-28" edge="1">
          <mxGeometry relative="1" as="geometry" />
        </mxCell>
        <UserObject label="&lt;font style=&quot;font-size: 8px;&quot;&gt;Block user&lt;/font&gt;" link="data:page/id,E7bCNBsX6JxuEmnLxA0T" id="d84fnQZny8LNiwPy-5_K-9">
          <mxCell style="shape=process;whiteSpace=wrap;html=1;backgroundOutline=1;fillColor=#647687;fontColor=#ffffff;strokeColor=#314354;" parent="1" vertex="1">
            <mxGeometry x="620" y="1010" width="120" height="30" as="geometry" />
          </mxCell>
        </UserObject>
        <mxCell id="v-_th_8nT_63S4hKsCnV-5" style="edgeStyle=orthogonalEdgeStyle;rounded=0;orthogonalLoop=1;jettySize=auto;html=1;entryX=1;entryY=0.5;entryDx=0;entryDy=0;" parent="1" source="v-_th_8nT_63S4hKsCnV-1" target="ScLeXQZ1H-QjNiTSV4QV-12" edge="1">
          <mxGeometry relative="1" as="geometry">
            <Array as="points">
              <mxPoint x="680" y="705" />
            </Array>
          </mxGeometry>
        </mxCell>
        <mxCell id="v-_th_8nT_63S4hKsCnV-6" value="&lt;font style=&quot;font-size: 8px;&quot;&gt;No&lt;/font&gt;" style="edgeLabel;html=1;align=center;verticalAlign=middle;resizable=0;points=[];" parent="v-_th_8nT_63S4hKsCnV-5" vertex="1" connectable="0">
          <mxGeometry x="-0.6211" y="-2" relative="1" as="geometry">
            <mxPoint x="1088" y="794" as="offset" />
          </mxGeometry>
        </mxCell>
        <mxCell id="MYFaNhsUBVFwGZQAXsoW-3" value="&lt;font style=&quot;font-size: 8px;&quot;&gt;No&lt;/font&gt;" style="edgeLabel;html=1;align=center;verticalAlign=middle;resizable=0;points=[];" vertex="1" connectable="0" parent="v-_th_8nT_63S4hKsCnV-5">
          <mxGeometry x="-0.8701" y="-2" relative="1" as="geometry">
            <mxPoint x="-4" y="17" as="offset" />
          </mxGeometry>
        </mxCell>
        <mxCell id="v-_th_8nT_63S4hKsCnV-1" value="&lt;font style=&quot;font-size: 8px;&quot;&gt;5 Attempts&lt;/font&gt;" style="rhombus;whiteSpace=wrap;html=1;" parent="1" vertex="1">
          <mxGeometry x="640" y="880" width="80" height="80" as="geometry" />
        </mxCell>
        <mxCell id="Qw6zSwiDoBsw6u5X71zS-5" style="edgeStyle=orthogonalEdgeStyle;rounded=0;orthogonalLoop=1;jettySize=auto;html=1;entryX=0;entryY=0.5;entryDx=0;entryDy=0;" edge="1" parent="1" source="Qw6zSwiDoBsw6u5X71zS-2" target="v-_th_8nT_63S4hKsCnV-1">
          <mxGeometry relative="1" as="geometry" />
        </mxCell>
        <mxCell id="Qw6zSwiDoBsw6u5X71zS-2" value="&lt;font style=&quot;font-size: 8px;&quot;&gt;ErrMsg: Wrong Credentials&lt;/font&gt;" style="rounded=0;whiteSpace=wrap;html=1;fillColor=#e51400;fontColor=#ffffff;strokeColor=#B20000;" vertex="1" parent="1">
          <mxGeometry x="480" y="905" width="120" height="30" as="geometry" />
        </mxCell>
        <mxCell id="MYFaNhsUBVFwGZQAXsoW-4" style="edgeStyle=orthogonalEdgeStyle;rounded=0;orthogonalLoop=1;jettySize=auto;html=1;entryX=0.5;entryY=0;entryDx=0;entryDy=0;" edge="1" parent="1" source="FHc7EWl7iv1VO1e3bEvm-1" target="ScLeXQZ1H-QjNiTSV4QV-100">
          <mxGeometry relative="1" as="geometry" />
        </mxCell>
        <mxCell id="FHc7EWl7iv1VO1e3bEvm-1" value="&lt;font style=&quot;font-size: 8px;&quot;&gt;InfoMsg: No user found&lt;/font&gt;" style="rounded=0;whiteSpace=wrap;html=1;fillColor=#1ba1e2;strokeColor=#006EAF;fontColor=#ffffff;" vertex="1" parent="1">
          <mxGeometry x="60" y="505" width="120" height="30" as="geometry" />
        </mxCell>
        <mxCell id="MYFaNhsUBVFwGZQAXsoW-9" value="" style="edgeStyle=orthogonalEdgeStyle;rounded=0;orthogonalLoop=1;jettySize=auto;html=1;entryX=0.5;entryY=0;entryDx=0;entryDy=0;" edge="1" parent="1" source="ScLeXQZ1H-QjNiTSV4QV-9" target="MYFaNhsUBVFwGZQAXsoW-8">
          <mxGeometry relative="1" as="geometry">
            <mxPoint x="400" y="300" as="sourcePoint" />
            <mxPoint x="400" y="480" as="targetPoint" />
          </mxGeometry>
        </mxCell>
        <mxCell id="MYFaNhsUBVFwGZQAXsoW-12" style="edgeStyle=orthogonalEdgeStyle;rounded=0;orthogonalLoop=1;jettySize=auto;html=1;entryX=0;entryY=0.5;entryDx=0;entryDy=0;" edge="1" parent="1" source="MYFaNhsUBVFwGZQAXsoW-8" target="MYFaNhsUBVFwGZQAXsoW-10">
          <mxGeometry relative="1" as="geometry" />
        </mxCell>
        <mxCell id="MYFaNhsUBVFwGZQAXsoW-13" value="&lt;font style=&quot;font-size: 8px;&quot;&gt;Yes&lt;/font&gt;" style="edgeLabel;html=1;align=center;verticalAlign=middle;resizable=0;points=[];" vertex="1" connectable="0" parent="MYFaNhsUBVFwGZQAXsoW-12">
          <mxGeometry x="-0.2833" y="1" relative="1" as="geometry">
            <mxPoint as="offset" />
          </mxGeometry>
        </mxCell>
        <mxCell id="MYFaNhsUBVFwGZQAXsoW-8" value="&lt;span style=&quot;font-size: 8px;&quot;&gt;User blocked&lt;/span&gt;" style="rhombus;whiteSpace=wrap;html=1;" vertex="1" parent="1">
          <mxGeometry x="360" y="350" width="80" height="80" as="geometry" />
        </mxCell>
        <mxCell id="MYFaNhsUBVFwGZQAXsoW-11" style="edgeStyle=orthogonalEdgeStyle;rounded=0;orthogonalLoop=1;jettySize=auto;html=1;entryX=1;entryY=0.5;entryDx=0;entryDy=0;" edge="1" parent="1" source="MYFaNhsUBVFwGZQAXsoW-10" target="ScLeXQZ1H-QjNiTSV4QV-28">
          <mxGeometry relative="1" as="geometry">
            <Array as="points">
              <mxPoint x="770" y="390" />
              <mxPoint x="770" y="1095" />
            </Array>
          </mxGeometry>
        </mxCell>
        <mxCell id="MYFaNhsUBVFwGZQAXsoW-10" value="&lt;font style=&quot;font-size: 8px;&quot;&gt;ErrMsg: Wrong Credentials&lt;/font&gt;" style="rounded=0;whiteSpace=wrap;html=1;fillColor=#e51400;fontColor=#ffffff;strokeColor=#B20000;" vertex="1" parent="1">
          <mxGeometry x="480" y="375" width="120" height="30" as="geometry" />
        </mxCell>
      </root>
    </mxGraphModel>
  </diagram>
  <diagram name="Registration" id="N6yQV4m1ywlepFCkM-Md">
    <mxGraphModel dx="1173" dy="1052" grid="1" gridSize="10" guides="1" tooltips="1" connect="1" arrows="1" fold="1" page="1" pageScale="1" pageWidth="827" pageHeight="1169" math="0" shadow="0">
      <root>
        <mxCell id="GY-SRT5lTmZ97ftaPMFK-0" />
        <mxCell id="GY-SRT5lTmZ97ftaPMFK-1" parent="GY-SRT5lTmZ97ftaPMFK-0" />
        <mxCell id="GY-SRT5lTmZ97ftaPMFK-2" value="&lt;h1&gt;Registration&lt;/h1&gt;&lt;p&gt;Flowchart for registration process&lt;/p&gt;" style="text;html=1;strokeColor=none;fillColor=none;spacing=5;spacingTop=-20;whiteSpace=wrap;overflow=hidden;rounded=0;align=center;" parent="GY-SRT5lTmZ97ftaPMFK-1" vertex="1">
          <mxGeometry x="265" y="30" width="270" height="70" as="geometry" />
        </mxCell>
        <mxCell id="GY-SRT5lTmZ97ftaPMFK-3" style="edgeStyle=orthogonalEdgeStyle;rounded=0;orthogonalLoop=1;jettySize=auto;html=1;" parent="GY-SRT5lTmZ97ftaPMFK-1" source="GY-SRT5lTmZ97ftaPMFK-4" target="GY-SRT5lTmZ97ftaPMFK-5" edge="1">
          <mxGeometry relative="1" as="geometry" />
        </mxCell>
        <mxCell id="GY-SRT5lTmZ97ftaPMFK-4" value="&lt;p style=&quot;line-height: 100%;&quot;&gt;&lt;font style=&quot;font-size: 8px;&quot;&gt;Start&lt;/font&gt;&lt;/p&gt;" style="rounded=1;whiteSpace=wrap;html=1;arcSize=50;" parent="GY-SRT5lTmZ97ftaPMFK-1" vertex="1">
          <mxGeometry x="340" y="120" width="120" height="30" as="geometry" />
        </mxCell>
        <mxCell id="GY-SRT5lTmZ97ftaPMFK-5" value="&lt;font style=&quot;font-size: 8px;&quot;&gt;Email Address&lt;/font&gt;" style="shape=parallelogram;perimeter=parallelogramPerimeter;whiteSpace=wrap;html=1;fixedSize=1;" parent="GY-SRT5lTmZ97ftaPMFK-1" vertex="1">
          <mxGeometry x="340" y="180" width="120" height="30" as="geometry" />
        </mxCell>
        <mxCell id="txEyctZZ4xzaI2-g41bn-1" value="&lt;font style=&quot;font-size: 8px;&quot;&gt;Yes&lt;/font&gt;" style="edgeStyle=orthogonalEdgeStyle;rounded=0;orthogonalLoop=1;jettySize=auto;html=1;entryX=0;entryY=0.5;entryDx=0;entryDy=0;" edge="1" parent="GY-SRT5lTmZ97ftaPMFK-1" source="GY-SRT5lTmZ97ftaPMFK-8" target="txEyctZZ4xzaI2-g41bn-0">
          <mxGeometry relative="1" as="geometry">
            <Array as="points">
              <mxPoint x="520" y="370" />
            </Array>
          </mxGeometry>
        </mxCell>
        <mxCell id="8gbtPG6RYSDfLFJrebNI-0" value="&lt;font style=&quot;font-size: 8px;&quot;&gt;No&lt;/font&gt;" style="edgeStyle=orthogonalEdgeStyle;rounded=0;orthogonalLoop=1;jettySize=auto;html=1;entryX=0.5;entryY=0;entryDx=0;entryDy=0;" edge="1" parent="GY-SRT5lTmZ97ftaPMFK-1" source="GY-SRT5lTmZ97ftaPMFK-8" target="GY-SRT5lTmZ97ftaPMFK-12">
          <mxGeometry x="-0.599" relative="1" as="geometry">
            <mxPoint as="offset" />
          </mxGeometry>
        </mxCell>
        <mxCell id="GY-SRT5lTmZ97ftaPMFK-8" value="&lt;font style=&quot;font-size: 8px;&quot;&gt;Email exists&lt;/font&gt;" style="rhombus;whiteSpace=wrap;html=1;" parent="GY-SRT5lTmZ97ftaPMFK-1" vertex="1">
          <mxGeometry x="360" y="330" width="80" height="80" as="geometry" />
        </mxCell>
        <mxCell id="GY-SRT5lTmZ97ftaPMFK-11" style="edgeStyle=orthogonalEdgeStyle;rounded=0;orthogonalLoop=1;jettySize=auto;html=1;entryX=0.5;entryY=0;entryDx=0;entryDy=0;" parent="GY-SRT5lTmZ97ftaPMFK-1" source="GY-SRT5lTmZ97ftaPMFK-12" target="GY-SRT5lTmZ97ftaPMFK-45" edge="1">
          <mxGeometry relative="1" as="geometry" />
        </mxCell>
        <mxCell id="GY-SRT5lTmZ97ftaPMFK-12" value="&lt;font style=&quot;font-size: 8px;&quot;&gt;Show username input&lt;br&gt;&lt;/font&gt;" style="rounded=0;whiteSpace=wrap;html=1;" parent="GY-SRT5lTmZ97ftaPMFK-1" vertex="1">
          <mxGeometry x="340" y="440" width="120" height="30" as="geometry" />
        </mxCell>
        <mxCell id="GY-SRT5lTmZ97ftaPMFK-13" style="edgeStyle=orthogonalEdgeStyle;rounded=0;orthogonalLoop=1;jettySize=auto;html=1;entryX=0.5;entryY=0;entryDx=0;entryDy=0;" parent="GY-SRT5lTmZ97ftaPMFK-1" source="GY-SRT5lTmZ97ftaPMFK-14" target="GY-SRT5lTmZ97ftaPMFK-8" edge="1">
          <mxGeometry relative="1" as="geometry" />
        </mxCell>
        <mxCell id="GY-SRT5lTmZ97ftaPMFK-14" value="&lt;font style=&quot;font-size: 8px;&quot;&gt;Users&lt;/font&gt;" style="shape=cylinder3;whiteSpace=wrap;html=1;boundedLbl=1;backgroundOutline=1;size=15;" parent="GY-SRT5lTmZ97ftaPMFK-1" vertex="1">
          <mxGeometry x="355" y="240" width="90" height="60" as="geometry" />
        </mxCell>
        <mxCell id="GY-SRT5lTmZ97ftaPMFK-15" style="edgeStyle=orthogonalEdgeStyle;rounded=0;orthogonalLoop=1;jettySize=auto;html=1;entryX=0.5;entryY=0;entryDx=0;entryDy=0;entryPerimeter=0;" parent="GY-SRT5lTmZ97ftaPMFK-1" source="GY-SRT5lTmZ97ftaPMFK-5" target="GY-SRT5lTmZ97ftaPMFK-14" edge="1">
          <mxGeometry relative="1" as="geometry" />
        </mxCell>
        <mxCell id="GY-SRT5lTmZ97ftaPMFK-30" value="&lt;p style=&quot;line-height: 100%;&quot;&gt;&lt;font style=&quot;font-size: 8px;&quot;&gt;End&lt;/font&gt;&lt;/p&gt;" style="rounded=1;whiteSpace=wrap;html=1;arcSize=50;" parent="GY-SRT5lTmZ97ftaPMFK-1" vertex="1">
          <mxGeometry x="340" y="1080" width="120" height="30" as="geometry" />
        </mxCell>
        <mxCell id="GY-SRT5lTmZ97ftaPMFK-45" value="&lt;font style=&quot;font-size: 8px;&quot;&gt;Username&lt;/font&gt;" style="shape=parallelogram;perimeter=parallelogramPerimeter;whiteSpace=wrap;html=1;fixedSize=1;" parent="GY-SRT5lTmZ97ftaPMFK-1" vertex="1">
          <mxGeometry x="340" y="500" width="120" height="30" as="geometry" />
        </mxCell>
        <mxCell id="GY-SRT5lTmZ97ftaPMFK-46" style="edgeStyle=orthogonalEdgeStyle;rounded=0;orthogonalLoop=1;jettySize=auto;html=1;entryX=0.5;entryY=1;entryDx=0;entryDy=0;" parent="GY-SRT5lTmZ97ftaPMFK-1" source="GY-SRT5lTmZ97ftaPMFK-49" target="GY-SRT5lTmZ97ftaPMFK-74" edge="1">
          <mxGeometry relative="1" as="geometry">
            <mxPoint x="240" y="414" as="targetPoint" />
          </mxGeometry>
        </mxCell>
        <mxCell id="GY-SRT5lTmZ97ftaPMFK-47" value="&lt;font style=&quot;font-size: 8px;&quot;&gt;Yes&lt;/font&gt;" style="edgeLabel;html=1;align=center;verticalAlign=middle;resizable=0;points=[];" parent="GY-SRT5lTmZ97ftaPMFK-46" vertex="1" connectable="0">
          <mxGeometry x="-0.7463" y="1" relative="1" as="geometry">
            <mxPoint x="8" y="-2" as="offset" />
          </mxGeometry>
        </mxCell>
        <mxCell id="8gbtPG6RYSDfLFJrebNI-2" value="&lt;font style=&quot;font-size: 8px;&quot;&gt;No&lt;/font&gt;" style="edgeStyle=orthogonalEdgeStyle;rounded=0;orthogonalLoop=1;jettySize=auto;html=1;entryX=0;entryY=0.5;entryDx=0;entryDy=0;" edge="1" parent="GY-SRT5lTmZ97ftaPMFK-1" source="GY-SRT5lTmZ97ftaPMFK-49" target="GY-SRT5lTmZ97ftaPMFK-55">
          <mxGeometry relative="1" as="geometry">
            <Array as="points">
              <mxPoint x="470" y="690" />
              <mxPoint x="470" y="690" />
            </Array>
          </mxGeometry>
        </mxCell>
        <mxCell id="GY-SRT5lTmZ97ftaPMFK-49" value="&lt;font style=&quot;font-size: 8px;&quot;&gt;Username exists&lt;/font&gt;" style="rhombus;whiteSpace=wrap;html=1;" parent="GY-SRT5lTmZ97ftaPMFK-1" vertex="1">
          <mxGeometry x="360" y="650" width="80" height="80" as="geometry" />
        </mxCell>
        <mxCell id="GY-SRT5lTmZ97ftaPMFK-50" style="edgeStyle=orthogonalEdgeStyle;rounded=0;orthogonalLoop=1;jettySize=auto;html=1;entryX=0.5;entryY=0;entryDx=0;entryDy=0;" parent="GY-SRT5lTmZ97ftaPMFK-1" source="GY-SRT5lTmZ97ftaPMFK-51" target="GY-SRT5lTmZ97ftaPMFK-49" edge="1">
          <mxGeometry relative="1" as="geometry" />
        </mxCell>
        <mxCell id="GY-SRT5lTmZ97ftaPMFK-51" value="&lt;font style=&quot;font-size: 8px;&quot;&gt;Users&lt;/font&gt;" style="shape=cylinder3;whiteSpace=wrap;html=1;boundedLbl=1;backgroundOutline=1;size=15;" parent="GY-SRT5lTmZ97ftaPMFK-1" vertex="1">
          <mxGeometry x="355" y="560" width="90" height="60" as="geometry" />
        </mxCell>
        <mxCell id="GY-SRT5lTmZ97ftaPMFK-52" style="edgeStyle=orthogonalEdgeStyle;rounded=0;orthogonalLoop=1;jettySize=auto;html=1;entryX=0.5;entryY=0;entryDx=0;entryDy=0;entryPerimeter=0;" parent="GY-SRT5lTmZ97ftaPMFK-1" source="GY-SRT5lTmZ97ftaPMFK-45" target="GY-SRT5lTmZ97ftaPMFK-51" edge="1">
          <mxGeometry relative="1" as="geometry" />
        </mxCell>
        <mxCell id="GY-SRT5lTmZ97ftaPMFK-54" style="edgeStyle=orthogonalEdgeStyle;rounded=0;orthogonalLoop=1;jettySize=auto;html=1;entryX=0.5;entryY=0;entryDx=0;entryDy=0;" parent="GY-SRT5lTmZ97ftaPMFK-1" source="GY-SRT5lTmZ97ftaPMFK-55" target="GY-SRT5lTmZ97ftaPMFK-57" edge="1">
          <mxGeometry relative="1" as="geometry" />
        </mxCell>
        <mxCell id="GY-SRT5lTmZ97ftaPMFK-55" value="&lt;font style=&quot;font-size: 8px;&quot;&gt;Show password inputs&lt;br&gt;&lt;/font&gt;" style="rounded=0;whiteSpace=wrap;html=1;" parent="GY-SRT5lTmZ97ftaPMFK-1" vertex="1">
          <mxGeometry x="500" y="675" width="120" height="30" as="geometry" />
        </mxCell>
        <mxCell id="GY-SRT5lTmZ97ftaPMFK-56" style="edgeStyle=orthogonalEdgeStyle;rounded=0;orthogonalLoop=1;jettySize=auto;html=1;entryX=0.5;entryY=0;entryDx=0;entryDy=0;" parent="GY-SRT5lTmZ97ftaPMFK-1" source="GY-SRT5lTmZ97ftaPMFK-57" target="GY-SRT5lTmZ97ftaPMFK-61" edge="1">
          <mxGeometry relative="1" as="geometry" />
        </mxCell>
        <mxCell id="GY-SRT5lTmZ97ftaPMFK-57" value="&lt;p style=&quot;line-height: 60%;&quot;&gt;&lt;font style=&quot;font-size: 8px;&quot;&gt;Password&lt;br&gt;Passowrd confirm&lt;br&gt;&lt;/font&gt;&lt;/p&gt;" style="shape=parallelogram;perimeter=parallelogramPerimeter;whiteSpace=wrap;html=1;fixedSize=1;" parent="GY-SRT5lTmZ97ftaPMFK-1" vertex="1">
          <mxGeometry x="500" y="740" width="120" height="30" as="geometry" />
        </mxCell>
        <mxCell id="8gbtPG6RYSDfLFJrebNI-4" style="edgeStyle=orthogonalEdgeStyle;rounded=0;orthogonalLoop=1;jettySize=auto;html=1;entryX=0.5;entryY=0;entryDx=0;entryDy=0;" edge="1" parent="GY-SRT5lTmZ97ftaPMFK-1" source="GY-SRT5lTmZ97ftaPMFK-61" target="8gbtPG6RYSDfLFJrebNI-3">
          <mxGeometry relative="1" as="geometry" />
        </mxCell>
        <mxCell id="8gbtPG6RYSDfLFJrebNI-5" value="&lt;font style=&quot;font-size: 8px;&quot;&gt;No&lt;/font&gt;" style="edgeLabel;html=1;align=center;verticalAlign=middle;resizable=0;points=[];" vertex="1" connectable="0" parent="8gbtPG6RYSDfLFJrebNI-4">
          <mxGeometry x="-0.4355" y="1" relative="1" as="geometry">
            <mxPoint x="-1" y="-4" as="offset" />
          </mxGeometry>
        </mxCell>
        <mxCell id="U8Utjx4eADmiMxEPu6J7-0" value="&lt;font style=&quot;font-size: 8px;&quot;&gt;Yes&lt;/font&gt;" style="edgeStyle=orthogonalEdgeStyle;rounded=0;orthogonalLoop=1;jettySize=auto;html=1;entryX=1;entryY=0.5;entryDx=0;entryDy=0;" edge="1" parent="GY-SRT5lTmZ97ftaPMFK-1" source="GY-SRT5lTmZ97ftaPMFK-61" target="GY-SRT5lTmZ97ftaPMFK-64">
          <mxGeometry x="-0.3333" relative="1" as="geometry">
            <mxPoint as="offset" />
          </mxGeometry>
        </mxCell>
        <mxCell id="GY-SRT5lTmZ97ftaPMFK-61" value="&lt;font style=&quot;font-size: 8px;&quot;&gt;Passwords match&lt;/font&gt;" style="rhombus;whiteSpace=wrap;html=1;" parent="GY-SRT5lTmZ97ftaPMFK-1" vertex="1">
          <mxGeometry x="520" y="810" width="80" height="80" as="geometry" />
        </mxCell>
        <mxCell id="GY-SRT5lTmZ97ftaPMFK-63" style="edgeStyle=orthogonalEdgeStyle;rounded=0;orthogonalLoop=1;jettySize=auto;html=1;entryX=0.5;entryY=0;entryDx=0;entryDy=0;" parent="GY-SRT5lTmZ97ftaPMFK-1" source="GY-SRT5lTmZ97ftaPMFK-64" target="GY-SRT5lTmZ97ftaPMFK-66" edge="1">
          <mxGeometry relative="1" as="geometry" />
        </mxCell>
        <mxCell id="GY-SRT5lTmZ97ftaPMFK-64" value="&lt;font style=&quot;font-size: 8px;&quot;&gt;Send email confirmation&lt;br&gt;&lt;/font&gt;" style="rounded=0;whiteSpace=wrap;html=1;" parent="GY-SRT5lTmZ97ftaPMFK-1" vertex="1">
          <mxGeometry x="340" y="835" width="120" height="30" as="geometry" />
        </mxCell>
        <mxCell id="U8Utjx4eADmiMxEPu6J7-1" value="&lt;font style=&quot;font-size: 8px;&quot;&gt;Yes&lt;/font&gt;" style="edgeStyle=orthogonalEdgeStyle;rounded=0;orthogonalLoop=1;jettySize=auto;html=1;entryX=0.5;entryY=0;entryDx=0;entryDy=0;" edge="1" parent="GY-SRT5lTmZ97ftaPMFK-1" source="GY-SRT5lTmZ97ftaPMFK-66" target="GY-SRT5lTmZ97ftaPMFK-68">
          <mxGeometry x="0.1111" relative="1" as="geometry">
            <mxPoint as="offset" />
          </mxGeometry>
        </mxCell>
        <mxCell id="U8Utjx4eADmiMxEPu6J7-3" style="edgeStyle=orthogonalEdgeStyle;rounded=0;orthogonalLoop=1;jettySize=auto;html=1;entryX=1;entryY=0.5;entryDx=0;entryDy=0;" edge="1" parent="GY-SRT5lTmZ97ftaPMFK-1" source="GY-SRT5lTmZ97ftaPMFK-66" target="U8Utjx4eADmiMxEPu6J7-2">
          <mxGeometry relative="1" as="geometry" />
        </mxCell>
        <mxCell id="U8Utjx4eADmiMxEPu6J7-6" value="&lt;font style=&quot;font-size: 8px;&quot;&gt;No&lt;/font&gt;" style="edgeLabel;html=1;align=center;verticalAlign=middle;resizable=0;points=[];" vertex="1" connectable="0" parent="U8Utjx4eADmiMxEPu6J7-3">
          <mxGeometry x="0.0271" y="-1" relative="1" as="geometry">
            <mxPoint x="6" as="offset" />
          </mxGeometry>
        </mxCell>
        <mxCell id="GY-SRT5lTmZ97ftaPMFK-66" value="&lt;span style=&quot;font-size: 8px;&quot;&gt;Email confirmed&lt;/span&gt;" style="rhombus;whiteSpace=wrap;html=1;" parent="GY-SRT5lTmZ97ftaPMFK-1" vertex="1">
          <mxGeometry x="360" y="895" width="80" height="80" as="geometry" />
        </mxCell>
        <mxCell id="GY-SRT5lTmZ97ftaPMFK-67" style="edgeStyle=orthogonalEdgeStyle;rounded=0;orthogonalLoop=1;jettySize=auto;html=1;" parent="GY-SRT5lTmZ97ftaPMFK-1" source="GY-SRT5lTmZ97ftaPMFK-68" target="GY-SRT5lTmZ97ftaPMFK-30" edge="1">
          <mxGeometry relative="1" as="geometry" />
        </mxCell>
        <mxCell id="GY-SRT5lTmZ97ftaPMFK-68" value="&lt;font style=&quot;font-size: 8px;&quot;&gt;Create user&lt;br&gt;&lt;/font&gt;" style="rounded=0;whiteSpace=wrap;html=1;fillColor=#60a917;fontColor=#ffffff;strokeColor=#2D7600;" parent="GY-SRT5lTmZ97ftaPMFK-1" vertex="1">
          <mxGeometry x="340" y="1010" width="120" height="30" as="geometry" />
        </mxCell>
        <mxCell id="8gbtPG6RYSDfLFJrebNI-1" style="edgeStyle=orthogonalEdgeStyle;rounded=0;orthogonalLoop=1;jettySize=auto;html=1;entryX=0;entryY=0.5;entryDx=0;entryDy=0;" edge="1" parent="GY-SRT5lTmZ97ftaPMFK-1" source="GY-SRT5lTmZ97ftaPMFK-74" target="GY-SRT5lTmZ97ftaPMFK-45">
          <mxGeometry relative="1" as="geometry">
            <Array as="points">
              <mxPoint x="215" y="515" />
            </Array>
          </mxGeometry>
        </mxCell>
        <mxCell id="GY-SRT5lTmZ97ftaPMFK-74" value="&lt;font style=&quot;font-size: 8px;&quot;&gt;ErrMsg: Username already exists&lt;br&gt;&lt;/font&gt;" style="rounded=0;whiteSpace=wrap;html=1;fillColor=#e51400;strokeColor=#B20000;fontColor=#ffffff;" parent="GY-SRT5lTmZ97ftaPMFK-1" vertex="1">
          <mxGeometry x="150" y="575" width="130" height="30" as="geometry" />
        </mxCell>
        <mxCell id="IEHTN0Hg7e8avpwHLR2X-1" style="edgeStyle=orthogonalEdgeStyle;rounded=0;orthogonalLoop=1;jettySize=auto;html=1;entryX=0;entryY=0.5;entryDx=0;entryDy=0;" edge="1" parent="GY-SRT5lTmZ97ftaPMFK-1" source="txEyctZZ4xzaI2-g41bn-0" target="IEHTN0Hg7e8avpwHLR2X-0">
          <mxGeometry relative="1" as="geometry" />
        </mxCell>
        <mxCell id="txEyctZZ4xzaI2-g41bn-0" value="&lt;p style=&quot;line-height: 60%;&quot;&gt;&lt;font style=&quot;font-size: 8px;&quot;&gt;InfoMsg: Email already registered&lt;/font&gt;&lt;/p&gt;" style="rounded=0;whiteSpace=wrap;html=1;fillColor=#0050ef;strokeColor=#001DBC;fontColor=#ffffff;" vertex="1" parent="GY-SRT5lTmZ97ftaPMFK-1">
          <mxGeometry x="520" y="355" width="120" height="30" as="geometry" />
        </mxCell>
        <mxCell id="IEHTN0Hg7e8avpwHLR2X-2" style="edgeStyle=orthogonalEdgeStyle;rounded=0;orthogonalLoop=1;jettySize=auto;html=1;entryX=1;entryY=0.5;entryDx=0;entryDy=0;" edge="1" parent="GY-SRT5lTmZ97ftaPMFK-1" source="IEHTN0Hg7e8avpwHLR2X-0" target="GY-SRT5lTmZ97ftaPMFK-30">
          <mxGeometry relative="1" as="geometry">
            <Array as="points">
              <mxPoint x="740" y="1095" />
            </Array>
          </mxGeometry>
        </mxCell>
        <UserObject label="&lt;font style=&quot;font-size: 8px;&quot;&gt;Login&lt;/font&gt;" link="data:page/id,nQIS1bLhMs0fP0lN2l1Q" id="IEHTN0Hg7e8avpwHLR2X-0">
          <mxCell style="shape=process;whiteSpace=wrap;html=1;backgroundOutline=1;fillColor=#647687;fontColor=#ffffff;strokeColor=#314354;" vertex="1" parent="GY-SRT5lTmZ97ftaPMFK-1">
            <mxGeometry x="680" y="355" width="120" height="30" as="geometry" />
          </mxCell>
        </UserObject>
        <mxCell id="8gbtPG6RYSDfLFJrebNI-6" style="edgeStyle=orthogonalEdgeStyle;rounded=0;orthogonalLoop=1;jettySize=auto;html=1;entryX=1;entryY=0.5;entryDx=0;entryDy=0;" edge="1" parent="GY-SRT5lTmZ97ftaPMFK-1" source="8gbtPG6RYSDfLFJrebNI-3" target="GY-SRT5lTmZ97ftaPMFK-55">
          <mxGeometry relative="1" as="geometry">
            <Array as="points">
              <mxPoint x="680" y="935" />
              <mxPoint x="680" y="690" />
            </Array>
          </mxGeometry>
        </mxCell>
        <mxCell id="8gbtPG6RYSDfLFJrebNI-3" value="&lt;font style=&quot;font-size: 8px;&quot;&gt;ErrMsg: Passwords don&#39;t match&lt;br&gt;&lt;/font&gt;" style="rounded=0;whiteSpace=wrap;html=1;fillColor=#e51400;strokeColor=#B20000;fontColor=#ffffff;" vertex="1" parent="GY-SRT5lTmZ97ftaPMFK-1">
          <mxGeometry x="495" y="920" width="130" height="30" as="geometry" />
        </mxCell>
        <mxCell id="U8Utjx4eADmiMxEPu6J7-2" value="&lt;p style=&quot;line-height: 60%;&quot;&gt;&lt;font style=&quot;font-size: 8px;&quot;&gt;InfoMsg:&lt;br&gt;Send email confirmation again&lt;br&gt;&lt;/font&gt;&lt;/p&gt;" style="rounded=0;whiteSpace=wrap;html=1;fillColor=#0050ef;strokeColor=#001DBC;fontColor=#ffffff;" vertex="1" parent="GY-SRT5lTmZ97ftaPMFK-1">
          <mxGeometry x="150" y="920" width="130" height="30" as="geometry" />
        </mxCell>
      </root>
    </mxGraphModel>
  </diagram>
  <diagram name="Forgot password" id="zOqw-mZWqnm6pRhBpSW0">
    <mxGraphModel dx="1114" dy="999" grid="1" gridSize="10" guides="1" tooltips="1" connect="1" arrows="1" fold="1" page="1" pageScale="1" pageWidth="827" pageHeight="1169" math="0" shadow="0">
      <root>
        <mxCell id="lQu-pPBBVFRNW9Qx1XtR-0" />
        <mxCell id="lQu-pPBBVFRNW9Qx1XtR-1" parent="lQu-pPBBVFRNW9Qx1XtR-0" />
        <mxCell id="lQu-pPBBVFRNW9Qx1XtR-2" value="&lt;h1&gt;Forgot Password&lt;/h1&gt;&lt;p&gt;Flowchart for forgot password process&lt;/p&gt;" style="text;html=1;strokeColor=none;fillColor=none;spacing=5;spacingTop=-20;whiteSpace=wrap;overflow=hidden;rounded=0;align=center;" parent="lQu-pPBBVFRNW9Qx1XtR-1" vertex="1">
          <mxGeometry x="265" y="30" width="270" height="70" as="geometry" />
        </mxCell>
        <mxCell id="lQu-pPBBVFRNW9Qx1XtR-4" value="&lt;p style=&quot;line-height: 100%;&quot;&gt;&lt;font style=&quot;font-size: 8px;&quot;&gt;Start&lt;/font&gt;&lt;/p&gt;" style="rounded=1;whiteSpace=wrap;html=1;arcSize=50;" parent="lQu-pPBBVFRNW9Qx1XtR-1" vertex="1">
          <mxGeometry x="340" y="120" width="120" height="30" as="geometry" />
        </mxCell>
        <mxCell id="lQu-pPBBVFRNW9Qx1XtR-30" value="&lt;p style=&quot;line-height: 100%;&quot;&gt;&lt;font style=&quot;font-size: 8px;&quot;&gt;End&lt;/font&gt;&lt;/p&gt;" style="rounded=1;whiteSpace=wrap;html=1;arcSize=50;" parent="lQu-pPBBVFRNW9Qx1XtR-1" vertex="1">
          <mxGeometry x="340" y="1090" width="120" height="30" as="geometry" />
        </mxCell>
      </root>
    </mxGraphModel>
  </diagram>
  <diagram id="kq_2p6XNj5Et3VIC6ELt" name="Authentication">
    <mxGraphModel dx="1114" dy="999" grid="1" gridSize="10" guides="1" tooltips="1" connect="1" arrows="1" fold="1" page="1" pageScale="1" pageWidth="827" pageHeight="1169" math="0" shadow="0">
      <root>
        <mxCell id="0" />
        <mxCell id="1" parent="0" />
      </root>
    </mxGraphModel>
  </diagram>
  <diagram name="Block user" id="E7bCNBsX6JxuEmnLxA0T">
    <mxGraphModel dx="1114" dy="999" grid="1" gridSize="10" guides="1" tooltips="1" connect="1" arrows="1" fold="1" page="1" pageScale="1" pageWidth="827" pageHeight="1169" math="0" shadow="0">
      <root>
        <mxCell id="BNL1cWQUfkhjCAjMoWrz-0" />
        <mxCell id="BNL1cWQUfkhjCAjMoWrz-1" parent="BNL1cWQUfkhjCAjMoWrz-0" />
        <mxCell id="BNL1cWQUfkhjCAjMoWrz-2" value="&lt;h1&gt;Block user&lt;/h1&gt;&lt;p&gt;Flowchart for blocking a user&lt;/p&gt;" style="text;html=1;strokeColor=none;fillColor=none;spacing=5;spacingTop=-20;whiteSpace=wrap;overflow=hidden;rounded=0;align=center;" parent="BNL1cWQUfkhjCAjMoWrz-1" vertex="1">
          <mxGeometry x="265" y="30" width="270" height="70" as="geometry" />
        </mxCell>
        <mxCell id="BNL1cWQUfkhjCAjMoWrz-4" value="&lt;p style=&quot;line-height: 100%;&quot;&gt;&lt;font style=&quot;font-size: 8px;&quot;&gt;Start&lt;/font&gt;&lt;/p&gt;" style="rounded=1;whiteSpace=wrap;html=1;arcSize=50;" parent="BNL1cWQUfkhjCAjMoWrz-1" vertex="1">
          <mxGeometry x="340" y="120" width="120" height="30" as="geometry" />
        </mxCell>
        <mxCell id="BNL1cWQUfkhjCAjMoWrz-30" value="&lt;p style=&quot;line-height: 100%;&quot;&gt;&lt;font style=&quot;font-size: 8px;&quot;&gt;End&lt;/font&gt;&lt;/p&gt;" style="rounded=1;whiteSpace=wrap;html=1;arcSize=50;" parent="BNL1cWQUfkhjCAjMoWrz-1" vertex="1">
          <mxGeometry x="340" y="660" width="120" height="30" as="geometry" />
        </mxCell>
        <mxCell id="BNL1cWQUfkhjCAjMoWrz-32" value="&lt;font style=&quot;font-size: 8px;&quot;&gt;Block login for 1min&lt;/font&gt;" style="rounded=0;whiteSpace=wrap;html=1;" parent="BNL1cWQUfkhjCAjMoWrz-1" vertex="1">
          <mxGeometry x="340" y="400" width="120" height="30" as="geometry" />
        </mxCell>
        <mxCell id="BNL1cWQUfkhjCAjMoWrz-43" value="&lt;font style=&quot;font-size: 8px;&quot;&gt;Block login multiply by 2&lt;/font&gt;" style="rounded=0;whiteSpace=wrap;html=1;" parent="BNL1cWQUfkhjCAjMoWrz-1" vertex="1">
          <mxGeometry x="520" y="305" width="120" height="30" as="geometry" />
        </mxCell>
        <mxCell id="KnF3KppfRFfyAOITnQRD-1" style="edgeStyle=orthogonalEdgeStyle;rounded=0;orthogonalLoop=1;jettySize=auto;html=1;entryX=0.5;entryY=0;entryDx=0;entryDy=0;" edge="1" parent="BNL1cWQUfkhjCAjMoWrz-1" source="K0r3Xg4pdB7m4kR4nkyb-1" target="BNL1cWQUfkhjCAjMoWrz-32">
          <mxGeometry relative="1" as="geometry" />
        </mxCell>
        <mxCell id="KnF3KppfRFfyAOITnQRD-2" style="edgeStyle=orthogonalEdgeStyle;rounded=0;orthogonalLoop=1;jettySize=auto;html=1;entryX=0;entryY=0.5;entryDx=0;entryDy=0;" edge="1" parent="BNL1cWQUfkhjCAjMoWrz-1" source="K0r3Xg4pdB7m4kR4nkyb-1" target="BNL1cWQUfkhjCAjMoWrz-43">
          <mxGeometry relative="1" as="geometry" />
        </mxCell>
        <mxCell id="K0r3Xg4pdB7m4kR4nkyb-1" value="&lt;font style=&quot;font-size: 8px;&quot;&gt;Already blocked&lt;/font&gt;" style="rhombus;whiteSpace=wrap;html=1;" vertex="1" parent="BNL1cWQUfkhjCAjMoWrz-1">
          <mxGeometry x="360" y="280" width="80" height="80" as="geometry" />
        </mxCell>
        <mxCell id="GMZCWEsUNNm11rFP5aWq-1" style="edgeStyle=orthogonalEdgeStyle;rounded=0;orthogonalLoop=1;jettySize=auto;html=1;entryX=0.5;entryY=0;entryDx=0;entryDy=0;" edge="1" parent="BNL1cWQUfkhjCAjMoWrz-1" source="qxAXe-jqOkZ6eNEO2oxF-0" target="GMZCWEsUNNm11rFP5aWq-0">
          <mxGeometry relative="1" as="geometry" />
        </mxCell>
        <mxCell id="qxAXe-jqOkZ6eNEO2oxF-0" value="&lt;font style=&quot;font-size: 8px;&quot;&gt;Users&lt;/font&gt;" style="shape=cylinder3;whiteSpace=wrap;html=1;boundedLbl=1;backgroundOutline=1;size=15;" vertex="1" parent="BNL1cWQUfkhjCAjMoWrz-1">
          <mxGeometry x="357.5" y="480" width="85" height="60" as="geometry" />
        </mxCell>
        <mxCell id="qxAXe-jqOkZ6eNEO2oxF-1" style="edgeStyle=orthogonalEdgeStyle;rounded=0;orthogonalLoop=1;jettySize=auto;html=1;entryX=0.5;entryY=0;entryDx=0;entryDy=0;entryPerimeter=0;" edge="1" parent="BNL1cWQUfkhjCAjMoWrz-1" source="BNL1cWQUfkhjCAjMoWrz-32" target="qxAXe-jqOkZ6eNEO2oxF-0">
          <mxGeometry relative="1" as="geometry" />
        </mxCell>
        <mxCell id="qxAXe-jqOkZ6eNEO2oxF-3" style="edgeStyle=orthogonalEdgeStyle;rounded=0;orthogonalLoop=1;jettySize=auto;html=1;entryX=1;entryY=0.5;entryDx=0;entryDy=0;entryPerimeter=0;" edge="1" parent="BNL1cWQUfkhjCAjMoWrz-1" source="BNL1cWQUfkhjCAjMoWrz-43" target="qxAXe-jqOkZ6eNEO2oxF-0">
          <mxGeometry relative="1" as="geometry">
            <Array as="points">
              <mxPoint x="580" y="510" />
            </Array>
          </mxGeometry>
        </mxCell>
        <mxCell id="qxAXe-jqOkZ6eNEO2oxF-6" style="edgeStyle=orthogonalEdgeStyle;rounded=0;orthogonalLoop=1;jettySize=auto;html=1;entryX=0.5;entryY=0;entryDx=0;entryDy=0;" edge="1" parent="BNL1cWQUfkhjCAjMoWrz-1" source="qxAXe-jqOkZ6eNEO2oxF-4" target="K0r3Xg4pdB7m4kR4nkyb-1">
          <mxGeometry relative="1" as="geometry" />
        </mxCell>
        <mxCell id="qxAXe-jqOkZ6eNEO2oxF-4" value="&lt;font style=&quot;font-size: 8px;&quot;&gt;Users&lt;/font&gt;" style="shape=cylinder3;whiteSpace=wrap;html=1;boundedLbl=1;backgroundOutline=1;size=15;" vertex="1" parent="BNL1cWQUfkhjCAjMoWrz-1">
          <mxGeometry x="357.5" y="190" width="85" height="60" as="geometry" />
        </mxCell>
        <mxCell id="qxAXe-jqOkZ6eNEO2oxF-5" style="edgeStyle=orthogonalEdgeStyle;rounded=0;orthogonalLoop=1;jettySize=auto;html=1;entryX=0.5;entryY=0;entryDx=0;entryDy=0;entryPerimeter=0;" edge="1" parent="BNL1cWQUfkhjCAjMoWrz-1" source="BNL1cWQUfkhjCAjMoWrz-4" target="qxAXe-jqOkZ6eNEO2oxF-4">
          <mxGeometry relative="1" as="geometry" />
        </mxCell>
        <mxCell id="GMZCWEsUNNm11rFP5aWq-2" style="edgeStyle=orthogonalEdgeStyle;rounded=0;orthogonalLoop=1;jettySize=auto;html=1;entryX=0.5;entryY=0;entryDx=0;entryDy=0;" edge="1" parent="BNL1cWQUfkhjCAjMoWrz-1" source="GMZCWEsUNNm11rFP5aWq-0" target="BNL1cWQUfkhjCAjMoWrz-30">
          <mxGeometry relative="1" as="geometry" />
        </mxCell>
        <mxCell id="GMZCWEsUNNm11rFP5aWq-0" value="&lt;font style=&quot;font-size: 8px;&quot;&gt;ErrMsg: Display block time&lt;/font&gt;" style="rounded=0;whiteSpace=wrap;html=1;fillColor=#e51400;fontColor=#ffffff;strokeColor=#B20000;" vertex="1" parent="BNL1cWQUfkhjCAjMoWrz-1">
          <mxGeometry x="340" y="585" width="120" height="30" as="geometry" />
        </mxCell>
      </root>
    </mxGraphModel>
  </diagram>
  <diagram id="5z3BXmXQDw1YYW2I_pHS" name="User Blocked">
    <mxGraphModel dx="1114" dy="999" grid="1" gridSize="10" guides="1" tooltips="1" connect="1" arrows="1" fold="1" page="1" pageScale="1" pageWidth="827" pageHeight="1169" math="0" shadow="0">
      <root>
        <mxCell id="0" />
        <mxCell id="1" parent="0" />
      </root>
    </mxGraphModel>
  </diagram>
  <diagram id="1WrIq4l6RPFU-vVchVF_" name="Create User">
    <mxGraphModel dx="1114" dy="999" grid="1" gridSize="10" guides="1" tooltips="1" connect="1" arrows="1" fold="1" page="1" pageScale="1" pageWidth="827" pageHeight="1169" math="0" shadow="0">
      <root>
        <mxCell id="0" />
        <mxCell id="1" parent="0" />
      </root>
    </mxGraphModel>
  </diagram>
  <diagram id="OhiBZFWkFj53jYnH71Qt" name="Check user email">
    <mxGraphModel dx="1114" dy="999" grid="1" gridSize="10" guides="1" tooltips="1" connect="1" arrows="1" fold="1" page="1" pageScale="1" pageWidth="827" pageHeight="1169" math="0" shadow="0">
      <root>
        <mxCell id="0" />
        <mxCell id="1" parent="0" />
      </root>
    </mxGraphModel>
  </diagram>
</mxfile>
